<?xml version="1.0" encoding="UTF-8"?>
<svg id="Capa_2" data-name="Capa 2" xmlns="http://www.w3.org/2000/svg" viewBox="0 0 149.67 198.64">
  <defs>
    <style>
      .cls-1 {
        fill: #fff;
      }

      .cls-1, .cls-2 {
        stroke: #000;
        stroke-miterlimit: 10;
      }

      .cls-2 {
        fill: none;
      }
    </style>
  </defs>
  <g id="Capa_1-2" data-name="Capa 1">
    <g>
      <path class="cls-1" d="M.62,196.81c1.84-3.44,3.41-7.06,5.55-10.3,12.7-19.25,25.41-38.5,38.34-57.59,1.46-2.16,2.93-4.31,4.39-6.46,2.62-3.83,2.39-6.82.6-10.56-6.55-13.68-12.96-27.43-19.42-41.16-4.57-9.71-3.2-14.41,6.41-18.93,27.15-12.76,54.4-25.3,81.63-37.9,6.8-3.15,13.62-6.28,20.5-9.25,1.84-.8,6.42-2.43,9.87-3.7-2.11,3.52-5.12,7.69-6.43,9.67-15.28,23.06-30.58,46.11-45.98,69.09-1.86,2.77-2.2,4.9-.58,8.14,7.13,14.32,13.92,28.81,20.66,43.31,3.45,7.41.72,13.94-7.58,17.99-10.94,5.33-22.01,10.39-33.02,15.54-20.52,9.6-41.03,19.24-61.59,28.75-3.89,1.8-8.02,3.09-12.03,4.61-.44-.42-.89-.84-1.33-1.26Z"/>
      <path class="cls-2" d="M53.49,175.05s19.88-14.54-3.98-63.15"/>
      <path class="cls-2" d="M95.06,86.86s-29.31-48.77,2.94-63.63"/>
    </g>
  </g>
</svg>