<svg width="76" height="111" viewBox="0 0 76 111" fill="none" xmlns="http://www.w3.org/2000/svg">
<path d="M1.00494 109.042C1.91468 107.145 2.69092 105.148 3.74898 103.36C10.0281 92.741 16.3122 82.1215 22.7051 71.5903C23.4269 70.3988 24.1537 69.2127 24.8756 68.0266C26.171 65.9138 26.0573 64.2643 25.1722 62.2011C21.9338 54.6544 18.7645 47.0691 15.5706 39.4948C13.3111 34.1382 13.9884 31.5454 18.7398 29.0519C32.1634 22.0127 45.6363 15.0949 59.0994 8.14399C62.4615 6.40626 65.8334 4.67957 69.235 3.04114C70.1448 2.59981 72.4092 1.70061 74.115 1C73.0718 2.94184 71.5835 5.24226 70.9359 6.33455C63.3811 19.0558 55.8165 31.7716 48.2024 44.4487C47.2828 45.9768 47.1147 47.1518 47.9156 48.9392C51.4408 56.839 54.798 64.8325 58.1304 72.8316C59.8361 76.9194 58.4863 80.5217 54.3826 82.7559C48.9737 85.6963 43.5004 88.4877 38.0569 91.3287C27.9113 96.6246 17.7708 101.943 7.60547 107.189C5.68217 108.182 3.64021 108.894 1.65758 109.732C1.44003 109.5 1.21755 109.269 1 109.037L1.00494 109.042Z" fill="url(#paint0_linear_102_168)" stroke="black" stroke-miterlimit="10"/>
<path d="M27.145 97.0383C27.145 97.0383 36.9741 89.0172 25.1772 62.201" stroke="black" stroke-miterlimit="10"/>
<path d="M47.6981 48.3875C47.6981 48.3875 33.2066 21.4831 49.1517 13.2854" stroke="black" stroke-miterlimit="10"/>
<defs>
<linearGradient id="paint0_linear_102_168" x1="37.5575" y1="1" x2="37.5575" y2="109.732" gradientUnits="userSpaceOnUse">
<stop offset="0.21" stop-color="#008AFC"/>
<stop offset="0.955" stop-color="#005296"/>
</linearGradient>
</defs>
</svg>
